<svg xmlns:xlink="http://www.w3.org/1999/xlink" role="img" viewBox="0 0 24 24" xmlns="http://www.w3.org/2000/svg"><defs><linearGradient id="a"><stop offset="0" style="stop-color:#03fcfd;stop-opacity:1"/><stop offset="1" style="stop-color:#0734ff;stop-opacity:1"/></linearGradient><linearGradient xlink:href="#a" gradientUnits="userSpaceOnUse" id="b" x1="2.348" x2="23.241" y1="1.095" y2="23.027"/></defs><path d="M11.541 23.814a35.406 35.406 0 0 0-3.319-1.47 20.883 20.883 0 0 0-3.228-.9 168.76 168.76 0 0 0-2.52-.423 4.584 4.584 0 0 1-.53-.105l-.055-.029v-.379c0-.66.113-3.243.197-4.552a72.41 72.41 0 0 1 .152-1.848c.05-.35.274-1.415.422-2.004a21.2 21.2 0 0 1 1.135-3.403c.265-.628.512-1.094 1.092-2.05.428-.702.74-1.16 1.26-1.857.661-.878 1.4-1.644 2.471-2.554 1.214-1.033 1.38-1.163 1.916-1.48.19-.115.42-.258.516-.32.2-.133.735-.4.86-.43.081-.02.094-.016.271.057.345.146.636.293.823.417.103.065.345.215.54.332.466.28.783.527 1.843 1.435.71.61.795.69 1.335 1.255.708.74.83.885 1.458 1.754.507.7.794 1.15 1.354 2.114.47.81.92 1.844 1.344 3.086.32.944.765 2.84.885 3.78.13 1.006.28 3.731.342 6.183.01.46.01.482-.023.494-.11.031-.92.178-1.527.273-.83.134-1.636.278-2.054.368a20.78 20.78 0 0 0-3.565 1.13 42.05 42.05 0 0 0-2.43 1.11c-.532.266-.48.266-.965.017z" fill="#000000" style="fill:url(#b);fill-opacity:1;stroke:none;stroke-width:0.401999;stroke-miterlimit:4;stroke-dasharray:none;stroke-opacity:0"/><path d="m7.947 13.798-.296.009-.032.027-.719.62-.686.59v3.533h11.572v-3.531l-.72-.62-.72-.62-.258-.004a8.94 8.94 0 0 1-.292-.01l-.034-.004v1.644h-3.747c-2.49 0-3.746.003-3.746.01 0 .005-.003.01-.007.01-.005 0-.007-.374-.005-.832 0-.458-.001-.832-.005-.83l-.305.009zm2.291-8.361c-.064.034-.06-.158-.06 2.507v2.43H8.534l-.032.03c-.04.036-.044.09-.009.14.068.092 3.41 4.28 3.433 4.304.023.02.04.029.071.029.03 0 .05-.008.072-.03.017-.015.8-.994 1.742-2.175 1.196-1.5 1.714-2.157 1.718-2.18.007-.037-.008-.072-.04-.1-.02-.015-.08-.017-.847-.017h-.827V5.493l-.03-.033-.03-.034-1.745-.002c-1.53-.002-1.749 0-1.773.013z" style="fill:#ffffff;stroke:none;stroke-width:0.00102779"/></svg>